Coordinates
version=1
nRows=19
nColumns=34
inDegrees=yes

Units are S.I. units (second, meters, Newtons, ...)
Angles are in degrees.

endheader
time	pelvis_tilt	pelvis_list	pelvis_rotation	pelvis_tx	pelvis_ty	pelvis_tz	hip_flexion_r	hip_adduction_r	hip_rotation_r	knee_angle_r	ankle_angle_r	subtalar_angle_r	mtp_angle_r	hip_flexion_l	hip_adduction_l	hip_rotation_l	knee_angle_l	socket_flexion	socket_adduction	socket_rotation	socket_tx	socket_ty	socket_tz	pros_ankle_rx	pros_ankle_ry	pros_ankle_rz	pros_ankle_tx	pros_ankle_ty	pros_ankle_tz	foot_flex	lumbar_extension	lumbar_bending	lumbar_rotation
      0.00000000	     -5.22851998	     -8.58685559	     -7.55924146	     -0.75979948	      1.03824504	      0.32294625	    -16.36750421	      9.41847815	     -3.78216878	     -3.90663872	     -0.12710375	     26.04310534	     38.19262181	     22.33729048	     -8.82432821	      1.24092306	      8.97987105	      7.27250248	     -0.73538729	     -3.37171205	      0.00000000	      0.00055206	      0.00000000	      0.00000000	      0.00000000	      0.00000000	      0.00000000	      0.00000000	      0.00000000	      0.24878529	     -4.92141855	      5.49358565	    -15.22022332
      0.00416667	     -5.22506407	     -8.62178222	     -7.65003639	     -0.75451505	      1.03714797	      0.32325492	    -16.57090498	      9.37799084	     -3.71108363	     -4.10455286	     -0.15729593	     26.07170191	     38.21015312	     22.36532617	     -8.82096881	      1.30381611	      8.90602256	      7.31848666	     -0.70921073	     -3.42264953	      0.00000000	      0.00028094	      0.00000000	      0.00000000	      0.00000000	      0.00000000	      0.00000000	      0.00000000	      0.00000000	     -0.15504299	     -4.87291603	      5.45893007	    -15.19036060
      0.00833333	     -5.22024312	     -8.66373475	     -7.77950518	     -0.74904088	      1.03603628	      0.32359700	    -16.76922695	      9.32509173	     -3.62070863	     -4.33164748	     -0.18745362	     26.12295188	     38.24716238	     22.38569316	     -8.84011067	      1.38376723	      8.79939008	      7.35229033	     -0.68847926	     -3.51846503	      0.00000000	     -0.00007735	      0.00000000	      0.00000000	      0.00000000	      0.00000000	      0.00000000	      0.00000000	      0.00000000	     -0.59698621	     -4.84843543	      5.42551988	    -15.12015703
      0.01250000	     -5.20393725	     -8.71038791	     -7.91977097	     -0.74342015	      1.03491000	      0.32395924	    -16.96380779	      9.26829252	     -3.51592458	     -4.60943645	     -0.21301533	     26.19503988	     38.31038602	     22.39933005	     -8.86784859	      1.47936261	      8.65989741	      7.39115627	     -0.67206619	     -3.64193397	      0.00000000	     -0.00048333	      0.00000000	      0.00000000	      0.00000000	      0.00000000	      0.00000000	      0.00000000	      0.00000000	     -1.05134324	     -4.84963506	      5.38836378	    -15.00526145
      0.01666667	     -5.16639589	     -8.79828233	     -8.10889635	     -0.73789654	      1.03379173	      0.32427372	    -17.09255781	      9.21678061	     -3.41006983	     -5.06429305	     -0.15227965	     26.46167458	     38.64021220	     22.42837894	     -8.95108163	      1.66297402	      8.40300701	      7.40388008	     -0.66484352	     -3.92517637	      0.00000000	     -0.00105978	      0.00000000	      0.00000000	      0.00000000	      0.00000000	      0.00000000	      0.00000000	      0.00000000	     -1.46172523	     -5.02100211	      5.41029058	    -14.52015590
      0.02083333	     -5.16272912	     -8.84006604	     -8.18825405	     -0.73187044	      1.03255718	      0.32456760	    -17.29919836	      9.16949143	     -3.35263276	     -5.31112384	     -0.19795034	     26.50435522	     38.70209551	     22.44486446	     -8.95200743	      1.73417292	      8.28127735	      7.52611771	     -0.64249221	     -3.93968631	      0.00000000	     -0.00161663	      0.00000000	      0.00000000	      0.00000000	      0.00000000	      0.00000000	      0.00000000	      0.00000000	     -1.91464255	     -4.94632859	      5.37655878	    -14.48323624
      0.02500000	     -5.14503253	     -8.92267027	     -8.38388068	     -0.72599402	      1.03135439	      0.32494595	    -17.38324604	      9.09586199	     -3.38637838	     -5.81895776	     -0.19560900	     26.90052523	     39.41906392	     22.47486358	     -9.04166979	      1.87961146	      7.98720085	      7.55136882	     -0.62878558	     -4.15453590	      0.00000000	     -0.00240859	      0.00000000	      0.00000000	      0.00000000	      0.00000000	      0.00000000	      0.00000000	      0.00000000	     -2.40703723	     -5.05002765	      5.37718154	    -14.03149846
      0.02916667	     -5.13709956	     -8.94438666	     -8.49240880	     -0.71975751	      1.03015299	      0.32529043	    -17.57148493	      9.01330545	     -3.30589421	     -6.11062041	     -0.28540690	     26.94557341	     39.51635742	     22.46224590	     -9.04071508	      1.95857841	      7.82328407	      7.67999690	     -0.63145834	     -4.17664736	      0.00000000	     -0.00313481	      0.00000000	      0.00000000	      0.00000000	      0.00000000	      0.00000000	      0.00000000	      0.00000000	     -2.88176287	     -4.96840993	      5.31991024	    -14.02932205
      0.03333333	     -5.13007503	     -8.96749223	     -8.56300267	     -0.71351439	      1.02895132	      0.32563015	    -17.75491226	      8.95333908	     -3.21430031	     -6.40755544	     -0.36955870	     26.98711558	     39.58680536	     22.47636547	     -9.02410153	      2.01188002	      7.62493028	      7.87569882	     -0.63050544	     -4.22145349	      0.00000000	     -0.00388292	      0.00000000	      0.00000000	      0.00000000	      0.00000000	      0.00000000	      0.00000000	      0.00000000	     -3.26718688	     -4.92029519	      5.26032668	    -14.00199439
      0.03750000	     -5.10807011	     -8.98599661	     -8.79990334	     -0.70736541	      1.02788027	      0.32607984	    -17.82771717	      8.80030581	     -3.13270047	     -6.92493844	     -0.55063731	     27.11568450	     39.86144433	     22.44012351	     -9.07345991	      2.08945281	      7.31895552	      7.92774944	     -0.63627983	     -4.43827481	      0.00000000	     -0.00483265	      0.00000000	      0.00000000	      0.00000000	      0.00000000	      0.00000000	      0.00000000	      0.00000000	     -3.81879818	     -4.98803173	      5.13998728	    -13.84400624
      0.04166667	     -5.09441077	     -9.02434729	     -8.95088357	     -0.70127864	      1.02666036	      0.32636013	    -17.74075169	      8.64657105	     -3.44697888	     -7.70233576	     -0.56526426	     27.90306191	     41.82756799	     22.55193652	     -9.10111970	      2.14870739	      6.70125818	      7.88618687	     -0.63827656	     -4.47919785	      0.00000000	     -0.00603517	      0.00000000	      0.00000000	      0.00000000	      0.00000000	      0.00000000	      0.00000000	      0.00000000	     -4.16950391	     -5.09260667	      5.09590766	    -13.10595625
      0.04583333	     -5.07490209	     -9.02967101	     -9.06803428	     -0.69485894	      1.02559281	      0.32668104	    -17.88508736	      8.52982654	     -3.33726697	     -8.06720593	     -0.76956219	     27.91010161	     41.98598651	     22.49594902	     -9.09149189	      2.18755435	      6.45299983	      8.07079348	     -0.65794582	     -4.51813374	      0.00000000	     -0.00710916	      0.00000000	      0.00000000	      0.00000000	      0.00000000	      0.00000000	      0.00000000	      0.00000000	     -4.59943736	     -5.00613535	      4.99353730	    -13.21903567
      0.05000000	     -5.04954220	     -8.98493204	     -9.13761046	     -0.68848759	      1.02446771	      0.32700338	    -17.91298502	      8.33086294	     -3.63366352	     -8.54190015	     -1.39132840	     28.14163600	     47.31649019	     22.66165368	     -9.00012932	      1.98925938	      5.57637811	      7.88850317	     -0.63887326	     -4.32267771	      0.00000000	     -0.00844213	      0.00000000	      0.00000000	      0.00000000	      0.00000000	      0.00000000	      0.00000000	      0.00000000	     -4.91086889	     -5.02524713	      4.80662180	    -13.26269147
      0.05416667	     -5.01179857	     -8.98686939	     -9.23088301	     -0.68215046	      1.02356463	      0.32729300	    -18.00583522	      8.21731763	     -3.51306989	     -8.99602829	     -1.59489789	     28.14021574	     47.34674296	     22.58582329	     -8.98611994	      2.05953653	      5.28861382	      8.10867534	     -0.67496072	     -4.38997755	      0.00000000	     -0.00956053	      0.00000000	      0.00000000	      0.00000000	      0.00000000	      0.00000000	      0.00000000	      0.00000000	     -5.20923709	     -4.98887003	      4.69478465	    -13.25135028
      0.05833333	     -4.96374603	     -8.95902560	     -9.37786883	     -0.67597340	      1.02276416	      0.32759722	    -18.00364771	      8.03954267	     -3.40847075	     -9.62250141	     -1.91313926	     28.13394914	     47.42918749	     22.51624781	     -8.95751466	      2.09238305	      4.91262088	      8.28689945	     -0.70821869	     -4.56557064	      0.00000000	     -0.01065948	      0.00000000	      0.00000000	      0.00000000	      0.00000000	      0.00000000	      0.00000000	      0.00000000	     -5.47395848	     -5.05200084	      4.51556811	    -13.19240045
      0.06250000	     -4.93208059	     -8.88796215	     -9.50143912	     -0.66985640	      1.02202053	      0.32784888	    -17.91458284	      7.81952536	     -3.38531438	    -10.33015533	     -2.25400626	     28.19040914	     47.68176487	     22.50317163	     -8.87430224	      2.10201216	      4.43076320	      8.42748676	     -0.75193378	     -4.68883166	      0.00000000	     -0.01168748	      0.00000000	      0.00000000	      0.00000000	      0.00000000	      0.00000000	      0.00000000	      0.00000000	     -5.63543248	     -5.17796592	      4.29817942	    -13.01174698
      0.06666667	     -4.86301418	     -8.86987695	     -9.57221136	     -0.66360106	      1.02137565	      0.32804207	    -17.93762600	      7.67694457	     -3.27450505	    -10.91591580	     -2.53773334	     28.20091120	     47.80471920	     22.40110037	     -8.83199881	      2.14355393	      4.04217126	      8.62526249	     -0.78456864	     -4.74939770	      0.00000000	     -0.01285637	      0.00000000	      0.00000000	      0.00000000	      0.00000000	      0.00000000	      0.00000000	      0.00000000	     -5.78857338	     -5.12892241	      4.14543386	    -12.98749082
      0.07083333	     -4.91568263	     -8.77847257	     -9.64603975	     -0.65731067	      1.02043789	      0.32836752	    -17.66604886	      7.42632510	     -3.61183664	    -11.72578699	     -3.11167170	     28.53812188	     51.79813711	     22.83762058	     -8.70199228	      1.61706465	      2.44783769	      8.04914153	     -0.73347320	     -4.30757531	      0.00000000	     -0.01443099	      0.00000000	      0.00000000	      0.00000000	      0.00000000	      0.00000000	      0.00000000	      0.00000000	     -5.91000397	     -5.09737031	      3.91436780	    -12.80391887
      0.07500000	     -4.83548060	     -8.71348802	     -9.73088478	     -0.65127400	      1.02001494	      0.32860638	    -17.55292056	      7.23349078	     -3.48326736	    -12.51628802	     -3.59432134	     28.45937498	     51.85217786	     22.72213484	     -8.62576491	      1.62932573	      2.03999409	      8.26872196	     -0.76152982	     -4.46805842	      0.00000000	     -0.01543407	      0.00000000	      0.00000000	      0.00000000	      0.00000000	      0.00000000	      0.00000000	      0.00000000	     -5.93694377	     -5.19827447	      3.69053006	    -12.84955008
